# xmcd CD database file
# Copyright (C) 1993-1996 Ti Kan
#
# Track frame offsets:
# 150
# 11595
# 22580
# 33697
# 46460
# 58075
# 70270
# 80505
# 90337
# 100270
# 112835
# 124275
# 135772
# 146325
# 158182
# 169637
# 181630
# 192230
# 203017
# 215322
# 227922
# 237430
# 248782
# 260255
# 274055
# 286267
#
# Disc length: 3994 seconds
#
# Revision: 0
# Processed by: cddbd v1.4b41PL1 Copyright (c) Steve Scherf et al.
# Submitted via: inCDius 1.1b5
#
DISCID=590f981a
DTITLE=Jean Shepard - A Satisfied Mind
DYEAR=1900
DGENRE=
TTITLE0=A Dear John Letter
TTITLE1=Forgive Me, John
TTITLE2=A Satisfied Mind 
TTITLE3=Beautiful Lies
TTITLE4=I Thought Of You
TTITLE5=Take Possession
TTITLE6=I Want To Go Where No One Knows Me
TTITLE7=Have Heart, Will Love
TTITLE8=Second Fiddle (To An Old Guitar)
TTITLE9=Someone's Gotta Cry
TTITLE10=Many Happy Hangovers To You
TTITLE11=I'll Take The Dog
TTITLE12=If Teardrops Were Silver
TTITLE13=Your Forevers (Don't Last For Very Long)
TTITLE14=Mr. Do - It - Yourself
TTITLE15=Heart, We Did All That We Could
TTITLE16=Seven Lonely Days
TTITLE17=A Womans Hand
TTITLE18=I Want You Free
TTITLE19=Then He Touched Me
TTITLE20=Another Lonely Night
TTITLE21=Slipping Away
TTITLE22=At The Time
TTITLE23=Poor Sweet Baby
TTITLE24=I'll Do Anything It Takes(To Stay With You)
TTITLE25=The Tip Of My Fingers
EXTD=
EXTT0=
EXTT1=
EXTT2=
EXTT3=
EXTT4=
EXTT5=
EXTT6=
EXTT7=
EXTT8=
EXTT9=
EXTT10=
EXTT11=
EXTT12=
EXTT13=
EXTT14=
EXTT15=
EXTT16=
EXTT17=
EXTT18=
EXTT19=
EXTT20=
EXTT21=
EXTT22=
EXTT23=
EXTT24=
EXTT25=
PLAYORDER=
